{
	"asset":{
		"generator":"Khronos glTF Blender I/O v3.6.27",
		"version":"2.0"
	},
	"scene":0,
	"scenes":[
		{
			"name":"Scene",
			"nodes":[
				11
			]
		}
	],
	"nodes":[
		{
			"mesh":0,
			"name":"Cube.002",
			"scale":[
				0.04263332113623619,
				0.04263332113623619,
				0.10629349946975708
			],
			"translation":[
				0,
				0.9225466251373291,
				-0.36486685276031494
			]
		},
		{
			"mesh":1,
			"name":"Cylinder.006",
			"rotation":[
				0.7071068286895752,
				0,
				0,
				0.7071068286895752
			],
			"scale":[
				0.23257404565811157,
				0.23257404565811157,
				0.23257404565811157
			]
		},
		{
			"mesh":2,
			"name":"Cylinder.007",
			"rotation":[
				0.6097515225410461,
				-0.35805457830429077,
				-0.35805457830429077,
				0.6097516417503357
			],
			"scale":[
				0.05089830607175827,
				0.05089830607175827,
				0.05089830607175827
			],
			"translation":[
				-2.3086438179016113,
				0,
				1.1807941198349
			]
		},
		{
			"mesh":3,
			"name":"Cylinder.008",
			"rotation":[
				0.6097515225410461,
				-0.35805457830429077,
				-0.35805457830429077,
				0.6097516417503357
			],
			"scale":[
				0.05089830607175827,
				0.05089830607175827,
				0.05089830607175827
			],
			"translation":[
				2.3086447715759277,
				0,
				1.1807936429977417
			]
		},
		{
			"mesh":4,
			"name":"Sphere.013"
		},
		{
			"mesh":5,
			"name":"Sphere.014",
			"translation":[
				0,
				0,
				0.12309859693050385
			]
		},
		{
			"mesh":6,
			"name":"Sphere.015",
			"translation":[
				0,
				0,
				-0.13406245410442352
			]
		},
		{
			"mesh":7,
			"name":"Sphere.016",
			"translation":[
				0,
				0,
				-0.060326073318719864
			]
		},
		{
			"mesh":8,
			"name":"Sphere.017"
		},
		{
			"mesh":9,
			"name":"Sphere.018"
		},
		{
			"children":[
				0,
				1,
				2,
				3,
				4,
				5,
				6,
				7,
				8,
				9
			],
			"mesh":10,
			"name":"Sphere.012",
			"rotation":[
				0,
				-0.3206360638141632,
				0,
				0.9472025036811829
			],
			"scale":[
				0.08961761742830276,
				0.08961762487888336,
				0.08961761742830276
			],
			"translation":[
				0.017909346148371696,
				0.1744103580713272,
				0.01575358957052231
			]
		},
		{
			"children":[
				10
			],
			"name":"Empty",
			"scale":[
				17.86362075805664,
				17.86362075805664,
				17.86362075805664
			],
			"translation":[
				0,
				0,
				0.04247620701789856
			]
		}
	],
	"animations":[
		{
			"channels":[
				{
					"sampler":0,
					"target":{
						"node":11,
						"path":"translation"
					}
				},
				{
					"sampler":1,
					"target":{
						"node":11,
						"path":"rotation"
					}
				},
				{
					"sampler":2,
					"target":{
						"node":11,
						"path":"scale"
					}
				}
			],
			"name":"EmptyAction",
			"samplers":[
				{
					"input":45,
					"interpolation":"STEP",
					"output":46
				},
				{
					"input":47,
					"interpolation":"LINEAR",
					"output":48
				},
				{
					"input":45,
					"interpolation":"STEP",
					"output":49
				}
			]
		},
		{
			"channels":[
				{
					"sampler":0,
					"target":{
						"node":10,
						"path":"translation"
					}
				},
				{
					"sampler":1,
					"target":{
						"node":10,
						"path":"rotation"
					}
				},
				{
					"sampler":2,
					"target":{
						"node":10,
						"path":"scale"
					}
				}
			],
			"name":"Sphere.012Action.002",
			"samplers":[
				{
					"input":50,
					"interpolation":"LINEAR",
					"output":51
				},
				{
					"input":50,
					"interpolation":"LINEAR",
					"output":52
				},
				{
					"input":50,
					"interpolation":"LINEAR",
					"output":53
				}
			]
		}
	],
	"materials":[
		{
			"doubleSided":true,
			"name":"Material.001",
			"normalTexture":{
				"index":0
			},
			"pbrMetallicRoughness":{
				"baseColorTexture":{
					"index":1
				},
				"metallicRoughnessTexture":{
					"index":2
				}
			}
		}
	],
	"meshes":[
		{
			"name":"Cube.002",
			"primitives":[
				{
					"attributes":{
						"POSITION":0,
						"NORMAL":1,
						"TEXCOORD_0":2
					},
					"indices":3,
					"material":0
				}
			]
		},
		{
			"name":"Cylinder.001",
			"primitives":[
				{
					"attributes":{
						"POSITION":4,
						"NORMAL":5,
						"TEXCOORD_0":6
					},
					"indices":7,
					"material":0
				}
			]
		},
		{
			"name":"Cylinder.007",
			"primitives":[
				{
					"attributes":{
						"POSITION":8,
						"NORMAL":9,
						"TEXCOORD_0":10
					},
					"indices":11,
					"material":0
				}
			]
		},
		{
			"name":"Cylinder.008",
			"primitives":[
				{
					"attributes":{
						"POSITION":12,
						"NORMAL":13,
						"TEXCOORD_0":14
					},
					"indices":11,
					"material":0
				}
			]
		},
		{
			"name":"Sphere.013",
			"primitives":[
				{
					"attributes":{
						"POSITION":15,
						"NORMAL":16,
						"TEXCOORD_0":17
					},
					"indices":18,
					"material":0
				}
			]
		},
		{
			"name":"Sphere.014",
			"primitives":[
				{
					"attributes":{
						"POSITION":19,
						"NORMAL":20,
						"TEXCOORD_0":21
					},
					"indices":22
				}
			]
		},
		{
			"name":"Sphere.015",
			"primitives":[
				{
					"attributes":{
						"POSITION":23,
						"NORMAL":24,
						"TEXCOORD_0":25
					},
					"indices":26,
					"material":0
				}
			]
		},
		{
			"name":"Sphere.016",
			"primitives":[
				{
					"attributes":{
						"POSITION":27,
						"NORMAL":28,
						"TEXCOORD_0":29
					},
					"indices":30,
					"material":0
				}
			]
		},
		{
			"name":"Sphere.017",
			"primitives":[
				{
					"attributes":{
						"POSITION":31,
						"NORMAL":32,
						"TEXCOORD_0":33
					},
					"indices":34,
					"material":0
				}
			]
		},
		{
			"name":"Sphere.018",
			"primitives":[
				{
					"attributes":{
						"COLOR_0":35,
						"POSITION":36,
						"NORMAL":37,
						"TEXCOORD_0":38
					},
					"indices":39,
					"material":0
				}
			]
		},
		{
			"name":"Sphere.012",
			"primitives":[
				{
					"attributes":{
						"COLOR_0":40,
						"POSITION":41,
						"NORMAL":42,
						"TEXCOORD_0":43
					},
					"indices":44,
					"material":0
				}
			]
		}
	],
	"textures":[
		{
			"sampler":0,
			"source":0
		},
		{
			"sampler":0,
			"source":1
		},
		{
			"sampler":0,
			"source":2
		}
	],
	"images":[
		{
			"mimeType":"image/png",
			"name":"DefaultMaterial_Normal",
			"uri":"DefaultMaterial_Normal.png"
		},
		{
			"mimeType":"image/png",
			"name":"DefaultMaterial_BaseColor",
			"uri":"DefaultMaterial_BaseColor.png"
		},
		{
			"mimeType":"image/png",
			"name":"DefaultMaterial_Metallic-DefaultMaterial_Roughness",
			"uri":"DefaultMaterial_Metallic-DefaultMaterial_Roughness.png"
		}
	],
	"accessors":[
		{
			"bufferView":0,
			"componentType":5126,
			"count":1259,
			"max":[
				1.4178895950317383,
				0.9955369830131531,
				1.0000001192092896
			],
			"min":[
				-1.4194862842559814,
				-1.0000001192092896,
				-1.0000001192092896
			],
			"type":"VEC3"
		},
		{
			"bufferView":1,
			"componentType":5126,
			"count":1259,
			"type":"VEC3"
		},
		{
			"bufferView":2,
			"componentType":5126,
			"count":1259,
			"type":"VEC2"
		},
		{
			"bufferView":3,
			"componentType":5123,
			"count":2160,
			"type":"SCALAR"
		},
		{
			"bufferView":4,
			"componentType":5126,
			"count":15054,
			"max":[
				13.903704643249512,
				4.916075229644775,
				5.253646373748779
			],
			"min":[
				-13.903703689575195,
				-12.441622734069824,
				-2.9538419246673584
			],
			"type":"VEC3"
		},
		{
			"bufferView":5,
			"componentType":5126,
			"count":15054,
			"type":"VEC3"
		},
		{
			"bufferView":6,
			"componentType":5126,
			"count":15054,
			"type":"VEC2"
		},
		{
			"bufferView":7,
			"componentType":5123,
			"count":83712,
			"type":"SCALAR"
		},
		{
			"bufferView":8,
			"componentType":5126,
			"count":17435,
			"max":[
				11.192612648010254,
				2.3366334438323975,
				11.19261360168457
			],
			"min":[
				-11.192614555358887,
				-15.47380542755127,
				-11.192614555358887
			],
			"type":"VEC3"
		},
		{
			"bufferView":9,
			"componentType":5126,
			"count":17435,
			"type":"VEC3"
		},
		{
			"bufferView":10,
			"componentType":5126,
			"count":17435,
			"type":"VEC2"
		},
		{
			"bufferView":11,
			"componentType":5123,
			"count":96384,
			"type":"SCALAR"
		},
		{
			"bufferView":12,
			"componentType":5126,
			"count":17435,
			"max":[
				11.192612648010254,
				2.3366334438323975,
				11.19261360168457
			],
			"min":[
				-11.192614555358887,
				-15.47380542755127,
				-11.192614555358887
			],
			"type":"VEC3"
		},
		{
			"bufferView":13,
			"componentType":5126,
			"count":17435,
			"type":"VEC3"
		},
		{
			"bufferView":14,
			"componentType":5126,
			"count":17435,
			"type":"VEC2"
		},
		{
			"bufferView":15,
			"componentType":5126,
			"count":13842,
			"max":[
				3.3184547424316406,
				1.6924749612808228,
				6.577544689178467
			],
			"min":[
				-3.3184542655944824,
				-1.6921284198760986,
				-2.1102805137634277
			],
			"type":"VEC3"
		},
		{
			"bufferView":16,
			"componentType":5126,
			"count":13842,
			"type":"VEC3"
		},
		{
			"bufferView":17,
			"componentType":5126,
			"count":13842,
			"type":"VEC2"
		},
		{
			"bufferView":18,
			"componentType":5123,
			"count":21888,
			"type":"SCALAR"
		},
		{
			"bufferView":19,
			"componentType":5126,
			"count":1524,
			"max":[
				1.0303170680999756,
				-0.9017160534858704,
				0.6426356434822083
			],
			"min":[
				-1.0303170680999756,
				-0.9337154030799866,
				0.3952292203903198
			],
			"type":"VEC3"
		},
		{
			"bufferView":20,
			"componentType":5126,
			"count":1524,
			"type":"VEC3"
		},
		{
			"bufferView":21,
			"componentType":5126,
			"count":1524,
			"type":"VEC2"
		},
		{
			"bufferView":22,
			"componentType":5123,
			"count":8064,
			"type":"SCALAR"
		},
		{
			"bufferView":23,
			"componentType":5126,
			"count":3048,
			"max":[
				1.027599811553955,
				-0.9342655539512634,
				1.7380343675613403
			],
			"min":[
				-1.0275996923446655,
				-1.0776870250701904,
				0.3303868770599365
			],
			"type":"VEC3"
		},
		{
			"bufferView":24,
			"componentType":5126,
			"count":3048,
			"type":"VEC3"
		},
		{
			"bufferView":25,
			"componentType":5126,
			"count":3048,
			"type":"VEC2"
		},
		{
			"bufferView":26,
			"componentType":5123,
			"count":15360,
			"type":"SCALAR"
		},
		{
			"bufferView":27,
			"componentType":5126,
			"count":5108,
			"max":[
				0.9840977191925049,
				-0.998690128326416,
				2.2365989685058594
			],
			"min":[
				-0.9840976595878601,
				-1.0897420644760132,
				1.5893877744674683
			],
			"type":"VEC3"
		},
		{
			"bufferView":28,
			"componentType":5126,
			"count":5108,
			"type":"VEC3"
		},
		{
			"bufferView":29,
			"componentType":5126,
			"count":5108,
			"type":"VEC2"
		},
		{
			"bufferView":30,
			"componentType":5123,
			"count":27648,
			"type":"SCALAR"
		},
		{
			"bufferView":31,
			"componentType":5126,
			"count":7676,
			"max":[
				0.3725431561470032,
				1.052190899848938,
				0.37243393063545227
			],
			"min":[
				-0.3725363314151764,
				0.9160951375961304,
				-0.3726333677768707
			],
			"type":"VEC3"
		},
		{
			"bufferView":32,
			"componentType":5126,
			"count":7676,
			"type":"VEC3"
		},
		{
			"bufferView":33,
			"componentType":5126,
			"count":7676,
			"type":"VEC2"
		},
		{
			"bufferView":34,
			"componentType":5123,
			"count":44160,
			"type":"SCALAR"
		},
		{
			"bufferView":35,
			"componentType":5123,
			"count":145,
			"normalized":true,
			"type":"VEC4"
		},
		{
			"bufferView":36,
			"componentType":5126,
			"count":145,
			"max":[
				0.2878739535808563,
				0.28787392377853394,
				0.9856062531471252
			],
			"min":[
				-0.28787392377853394,
				-0.2878739535808563,
				0.985499382019043
			],
			"type":"VEC3"
		},
		{
			"bufferView":37,
			"componentType":5126,
			"count":145,
			"type":"VEC3"
		},
		{
			"bufferView":38,
			"componentType":5126,
			"count":145,
			"type":"VEC2"
		},
		{
			"bufferView":39,
			"componentType":5123,
			"count":768,
			"type":"SCALAR"
		},
		{
			"bufferView":40,
			"componentType":5123,
			"count":13743,
			"normalized":true,
			"type":"VEC4"
		},
		{
			"bufferView":41,
			"componentType":5126,
			"count":13743,
			"max":[
				2.125460624694824,
				0.9238146543502808,
				1.0383232831954956
			],
			"min":[
				-2.125460624694824,
				-1.1531964540481567,
				-2.7442688941955566
			],
			"type":"VEC3"
		},
		{
			"bufferView":42,
			"componentType":5126,
			"count":13743,
			"type":"VEC3"
		},
		{
			"bufferView":43,
			"componentType":5126,
			"count":13743,
			"type":"VEC2"
		},
		{
			"bufferView":44,
			"componentType":5123,
			"count":74112,
			"type":"SCALAR"
		},
		{
			"bufferView":45,
			"componentType":5126,
			"count":2,
			"max":[
				12.458333333333334
			],
			"min":[
				0.041666666666666664
			],
			"type":"SCALAR"
		},
		{
			"bufferView":46,
			"componentType":5126,
			"count":2,
			"type":"VEC3"
		},
		{
			"bufferView":47,
			"componentType":5126,
			"count":299,
			"max":[
				12.458333333333334
			],
			"min":[
				0.041666666666666664
			],
			"type":"SCALAR"
		},
		{
			"bufferView":48,
			"componentType":5126,
			"count":299,
			"type":"VEC4"
		},
		{
			"bufferView":49,
			"componentType":5126,
			"count":2,
			"type":"VEC3"
		},
		{
			"bufferView":50,
			"componentType":5126,
			"count":1,
			"max":[
				0.041666666666666664
			],
			"min":[
				0.041666666666666664
			],
			"type":"SCALAR"
		},
		{
			"bufferView":51,
			"componentType":5126,
			"count":1,
			"type":"VEC3"
		},
		{
			"bufferView":52,
			"componentType":5126,
			"count":1,
			"type":"VEC4"
		},
		{
			"bufferView":53,
			"componentType":5126,
			"count":1,
			"type":"VEC3"
		}
	],
	"bufferViews":[
		{
			"buffer":0,
			"byteLength":15108,
			"byteOffset":0,
			"target":34962
		},
		{
			"buffer":0,
			"byteLength":15108,
			"byteOffset":15108,
			"target":34962
		},
		{
			"buffer":0,
			"byteLength":10072,
			"byteOffset":30216,
			"target":34962
		},
		{
			"buffer":0,
			"byteLength":4320,
			"byteOffset":40288,
			"target":34963
		},
		{
			"buffer":0,
			"byteLength":180648,
			"byteOffset":44608,
			"target":34962
		},
		{
			"buffer":0,
			"byteLength":180648,
			"byteOffset":225256,
			"target":34962
		},
		{
			"buffer":0,
			"byteLength":120432,
			"byteOffset":405904,
			"target":34962
		},
		{
			"buffer":0,
			"byteLength":167424,
			"byteOffset":526336,
			"target":34963
		},
		{
			"buffer":0,
			"byteLength":209220,
			"byteOffset":693760,
			"target":34962
		},
		{
			"buffer":0,
			"byteLength":209220,
			"byteOffset":902980,
			"target":34962
		},
		{
			"buffer":0,
			"byteLength":139480,
			"byteOffset":1112200,
			"target":34962
		},
		{
			"buffer":0,
			"byteLength":192768,
			"byteOffset":1251680,
			"target":34963
		},
		{
			"buffer":0,
			"byteLength":209220,
			"byteOffset":1444448,
			"target":34962
		},
		{
			"buffer":0,
			"byteLength":209220,
			"byteOffset":1653668,
			"target":34962
		},
		{
			"buffer":0,
			"byteLength":139480,
			"byteOffset":1862888,
			"target":34962
		},
		{
			"buffer":0,
			"byteLength":166104,
			"byteOffset":2002368,
			"target":34962
		},
		{
			"buffer":0,
			"byteLength":166104,
			"byteOffset":2168472,
			"target":34962
		},
		{
			"buffer":0,
			"byteLength":110736,
			"byteOffset":2334576,
			"target":34962
		},
		{
			"buffer":0,
			"byteLength":43776,
			"byteOffset":2445312,
			"target":34963
		},
		{
			"buffer":0,
			"byteLength":18288,
			"byteOffset":2489088,
			"target":34962
		},
		{
			"buffer":0,
			"byteLength":18288,
			"byteOffset":2507376,
			"target":34962
		},
		{
			"buffer":0,
			"byteLength":12192,
			"byteOffset":2525664,
			"target":34962
		},
		{
			"buffer":0,
			"byteLength":16128,
			"byteOffset":2537856,
			"target":34963
		},
		{
			"buffer":0,
			"byteLength":36576,
			"byteOffset":2553984,
			"target":34962
		},
		{
			"buffer":0,
			"byteLength":36576,
			"byteOffset":2590560,
			"target":34962
		},
		{
			"buffer":0,
			"byteLength":24384,
			"byteOffset":2627136,
			"target":34962
		},
		{
			"buffer":0,
			"byteLength":30720,
			"byteOffset":2651520,
			"target":34963
		},
		{
			"buffer":0,
			"byteLength":61296,
			"byteOffset":2682240,
			"target":34962
		},
		{
			"buffer":0,
			"byteLength":61296,
			"byteOffset":2743536,
			"target":34962
		},
		{
			"buffer":0,
			"byteLength":40864,
			"byteOffset":2804832,
			"target":34962
		},
		{
			"buffer":0,
			"byteLength":55296,
			"byteOffset":2845696,
			"target":34963
		},
		{
			"buffer":0,
			"byteLength":92112,
			"byteOffset":2900992,
			"target":34962
		},
		{
			"buffer":0,
			"byteLength":92112,
			"byteOffset":2993104,
			"target":34962
		},
		{
			"buffer":0,
			"byteLength":61408,
			"byteOffset":3085216,
			"target":34962
		},
		{
			"buffer":0,
			"byteLength":88320,
			"byteOffset":3146624,
			"target":34963
		},
		{
			"buffer":0,
			"byteLength":1160,
			"byteOffset":3234944,
			"target":34962
		},
		{
			"buffer":0,
			"byteLength":1740,
			"byteOffset":3236104,
			"target":34962
		},
		{
			"buffer":0,
			"byteLength":1740,
			"byteOffset":3237844,
			"target":34962
		},
		{
			"buffer":0,
			"byteLength":1160,
			"byteOffset":3239584,
			"target":34962
		},
		{
			"buffer":0,
			"byteLength":1536,
			"byteOffset":3240744,
			"target":34963
		},
		{
			"buffer":0,
			"byteLength":109944,
			"byteOffset":3242280,
			"target":34962
		},
		{
			"buffer":0,
			"byteLength":164916,
			"byteOffset":3352224,
			"target":34962
		},
		{
			"buffer":0,
			"byteLength":164916,
			"byteOffset":3517140,
			"target":34962
		},
		{
			"buffer":0,
			"byteLength":109944,
			"byteOffset":3682056,
			"target":34962
		},
		{
			"buffer":0,
			"byteLength":148224,
			"byteOffset":3792000,
			"target":34963
		},
		{
			"buffer":0,
			"byteLength":8,
			"byteOffset":3940224
		},
		{
			"buffer":0,
			"byteLength":24,
			"byteOffset":3940232
		},
		{
			"buffer":0,
			"byteLength":1196,
			"byteOffset":3940256
		},
		{
			"buffer":0,
			"byteLength":4784,
			"byteOffset":3941452
		},
		{
			"buffer":0,
			"byteLength":24,
			"byteOffset":3946236
		},
		{
			"buffer":0,
			"byteLength":4,
			"byteOffset":3946260
		},
		{
			"buffer":0,
			"byteLength":12,
			"byteOffset":3946264
		},
		{
			"buffer":0,
			"byteLength":16,
			"byteOffset":3946276
		},
		{
			"buffer":0,
			"byteLength":12,
			"byteOffset":3946292
		}
	],
	"samplers":[
		{
			"magFilter":9729,
			"minFilter":9987
		}
	],
	"buffers":[
		{
			"byteLength":3946304,
			"uri":"ship.bin"
		}
	]
}
